# This file uses centimeters as units for non-parametric coordinates.

mtllib tmp.mtl
g default
v -0.124182 -0.623099 0.196078
v -0.333331 -0.596956 0.226582
v -0.342048 -0.623099 -0.091506
v -0.647058 -0.501095 -0.091506
v -0.620916 -0.509805 -0.331154
v -0.342048 -0.557736 -0.383445
v -0.167757 -0.557736 -0.501089
v 0.185184 -0.535954 0.030504
v 0.063180 -0.618738 -0.313727
vn -0.111454 -0.990176 0.084434
vn -0.111454 -0.990176 0.084434
vn -0.111454 -0.990176 0.084434
vn -0.370009 -0.925024 0.086166
vn -0.370009 -0.925024 0.086166
vn -0.370009 -0.925024 0.086166
vn -0.371382 -0.928456 -0.006767
vn -0.371382 -0.928455 -0.006767
vn -0.371382 -0.928455 -0.006767
vn -0.204291 -0.955260 -0.213876
vn -0.204291 -0.955260 -0.213876
vn -0.204291 -0.955260 -0.213876
vn -0.145896 -0.965399 -0.216146
vn -0.145896 -0.965399 -0.216146
vn -0.145896 -0.965399 -0.216146
vn 0.324088 -0.939484 0.111071
vn 0.324088 -0.939484 0.111071
vn 0.324088 -0.939484 0.111071
vn 0.007603 -0.999955 -0.005760
vn 0.007603 -0.999955 -0.005760
vn 0.007603 -0.999955 -0.005760
vn -0.097659 -0.975481 -0.197229
vn -0.097659 -0.975481 -0.197229
vn -0.097659 -0.975481 -0.197229
s off
g Balls:Mesh group
usemtl initialShadingGroup
f 1//1 2//2 3//3
f 4//4 3//5 2//6
f 3//7 4//8 5//9
f 5//10 6//11 3//12
f 6//13 7//14 3//15
f 9//16 8//17 1//18
f 1//19 3//20 9//21
f 9//22 3//23 7//24
